<svg width="512" height="512" version="1.1" viewBox="0 0 512 512" xmlns="http://www.w3.org/2000/svg">
 <path d="m420.37 363.15q0 57.697-162.19 57.697-162.19 0-162.19-57.697v-214.3q0-25.212 30.592-36.848 37.876-14.061 131.59-14.061 93.718 0 131.59 14.061 30.592 11.636 30.592 36.364v40.242h-126.74v-37.333q0-22.303-8.2549-28.606-6.3126-4.3636-27.193-4.3636-19.423 0-26.222 4.3636-9.2261 6.7879-9.2261 28.606v207.52q0 26.667 3.8847 32.485 6.3126 9.2121 31.563 9.2121t31.563-9.2121q3.8847-5.8182 3.8847-32.485v-113.94h-46.616v-22.788h173.35z" fill="#380bff" fill-opacity=".99216" style="font-variant-caps:normal;font-variant-east-asian:normal;font-variant-ligatures:normal;font-variant-numeric:normal;white-space:pre"/>
 <rect x="15" y="15" width="482" height="482" fill="none" opacity=".989" stroke="#380bff" stroke-width="30"/>
</svg>
