<svg width="512" height="512" version="1.1" viewBox="0 0 512 512" xmlns="http://www.w3.org/2000/svg">
 <path d="m420.37 284.12-0.97117 86.788q-0.48558 48.97-161.21 48.97-162.19 0-162.19-56.727v-80.97h125.77v75.636q0 26.667 4.3703 32.97 5.827 9.2121 32.049 9.2121 24.279 0 30.592-8.7273 3.8847-5.8182 3.8847-28.121v-93.091q0-12.606-50.986-21.333-83.035-15.03-94.689-18.424-50.986-14.545-50.986-39.758v-54.303q0-38.788 162.19-38.788 93.232 0 131.11 13.576 31.077 11.636 31.077 36.848v49.939h-126.74v-46.061q0-22.788-8.7405-29.576-6.3126-4.8485-26.707-4.8485-20.88 0-28.649 3.8788-7.7694 3.8788-7.7694 13.576v69.333q0 9.697 51.472 18.424 74.294 12.606 95.66 19.394 51.472 16 51.472 42.182z" fill="#3cff11" fill-opacity=".99216" style="font-variant-caps:normal;font-variant-east-asian:normal;font-variant-ligatures:normal;font-variant-numeric:normal;white-space:pre"/>
 <rect x="15" y="15" width="482" height="482" fill="none" opacity=".989" stroke="#3cff11" stroke-width="30"/>
</svg>
