<?xml version="1.0" encoding="UTF-8"?>
<!DOCTYPE svg PUBLIC "-//W3C//DTD SVG 1.1//EN" "http://www.w3.org/Graphics/SVG/1.1/DTD/svg11.dtd">
<svg xmlns="http://www.w3.org/2000/svg" version="1.1" width="512px" height="512px" style="shape-rendering:geometricPrecision; text-rendering:geometricPrecision; image-rendering:optimizeQuality; fill-rule:evenodd; clip-rule:evenodd" xmlns:xlink="http://www.w3.org/1999/xlink">
<g><path style="opacity:0.984" fill="#005aff" d="M 233.5,39.5 C 326.411,35.0281 396.578,72.3614 444,151.5C 471.464,204.218 477.131,259.218 461,316.5C 433.778,396.722 378.945,446.556 296.5,466C 213.171,479.054 143.671,454.22 88,391.5C 36.9405,324.761 25.9405,251.761 55,172.5C 90.1484,95.5223 149.648,51.189 233.5,39.5 Z M 253.5,69.5 C 287.066,69.8908 318.399,78.3908 347.5,95C 329.707,125.418 312.04,155.918 294.5,186.5C 318.852,202.525 331.852,225.192 333.5,254.5C 368.833,255.167 404.167,255.833 439.5,256.5C 436.291,325.279 405.624,377.613 347.5,413.5C 329.707,383.415 312.041,353.249 294.5,323C 293.5,322.333 292.5,322.333 291.5,323C 266.642,336.594 241.642,336.76 216.5,323.5C 198.263,353.633 180.263,383.966 162.5,414.5C 103.22,378.298 72.5532,325.298 70.5,255.5C 106.5,255.5 142.5,255.5 178.5,255.5C 179.927,226.297 192.927,203.964 217.5,188.5C 199.284,157.453 181.284,126.286 163.5,95C 183.106,82.7957 204.44,75.1291 227.5,72C 236.315,71.1275 244.982,70.2942 253.5,69.5 Z"/></g>
<g><path style="opacity:0.982" fill="#005aff" d="M 245.5,207.5 C 275.16,204.564 294.326,217.231 303,245.5C 306.421,275.18 293.921,294.346 265.5,303C 235.82,306.421 216.654,293.921 208,265.5C 204.699,235.735 217.199,216.402 245.5,207.5 Z"/></g>
</svg>
