<?xml version="1.0" encoding="UTF-8"?>
<!DOCTYPE svg PUBLIC "-//W3C//DTD SVG 1.1//EN" "http://www.w3.org/Graphics/SVG/1.1/DTD/svg11.dtd">
<svg xmlns="http://www.w3.org/2000/svg" version="1.1" width="135px" height="135px" style="shape-rendering:geometricPrecision; text-rendering:geometricPrecision; image-rendering:optimizeQuality; fill-rule:evenodd; clip-rule:evenodd" xmlns:xlink="http://www.w3.org/1999/xlink">
<g><path style="opacity:0.867" fill="#cea600" d="M 41.5,16.5 C 50.8393,16.3335 60.1726,16.5002 69.5,17C 69.5566,21.6047 71.5566,24.938 75.5,27C 79.3734,27.8362 83.2067,28.6695 87,29.5C 92.4162,28.3611 97.9162,28.1944 103.5,29C 107.649,30.2687 111.982,30.9354 116.5,31C 120.505,34.3596 120.172,37.3596 115.5,40C 111.313,40.0712 107.313,40.7378 103.5,42C 97.9162,42.8056 92.4162,42.6389 87,41.5C 81.2103,41.6641 75.877,43.3308 71,46.5C 68.9332,52.5856 70.7666,56.7523 76.5,59C 90.1761,60.1314 103.843,61.4647 117.5,63C 119.85,65.3728 120.017,67.8728 118,70.5C 104.262,72.4998 90.4285,73.9998 76.5,75C 70.7666,77.2477 68.9332,81.4144 71,87.5C 75.877,90.6692 81.2103,92.3359 87,92.5C 92.4162,91.3611 97.9162,91.1944 103.5,92C 107.313,93.2622 111.313,93.9288 115.5,94C 120.172,96.6404 120.505,99.6404 116.5,103C 109.338,103.343 102.338,104.177 95.5,105.5C 87.1217,104.127 79.1217,105.46 71.5,109.5C 70.7864,112.027 70.1197,114.527 69.5,117C 60.1667,117.667 50.8333,117.667 41.5,117C 40.5562,114.281 40.2229,111.448 40.5,108.5C 32.1058,110.261 29.1058,106.928 31.5,98.5C 29.1058,90.0723 32.1058,86.739 40.5,88.5C 40.5,84.5 40.5,80.5 40.5,76.5C 37.5,76.5 34.5,76.5 31.5,76.5C 31.5,70.1667 31.5,63.8333 31.5,57.5C 34.5,57.5 37.5,57.5 40.5,57.5C 40.5,53.5 40.5,49.5 40.5,45.5C 32.1058,47.261 29.1058,43.9277 31.5,35.5C 29.1058,27.0723 32.1058,23.739 40.5,25.5C 40.2641,22.3915 40.5975,19.3915 41.5,16.5 Z"/></g>
<g><path style="opacity:1" fill="#fefd00" d="M 42.5,19.5 C 51.1667,19.5 59.8333,19.5 68.5,19.5C 67.8748,22.9705 68.8748,25.8038 71.5,28C 75.5396,30.2599 79.8729,31.4266 84.5,31.5C 84.5,34.1667 84.5,36.8333 84.5,39.5C 71.0047,39.1391 66.0047,45.3058 69.5,58C 73.7916,61.8099 78.7916,63.3099 84.5,62.5C 84.5,65.5 84.5,68.5 84.5,71.5C 70.978,70.7066 65.978,76.7066 69.5,89.5C 73.8953,92.9651 78.8953,94.6318 84.5,94.5C 84.5,97.1667 84.5,99.8333 84.5,102.5C 79.022,102.77 74.022,104.437 69.5,107.5C 68.5258,109.743 68.1924,112.076 68.5,114.5C 59.8333,114.5 51.1667,114.5 42.5,114.5C 41.9209,109.341 41.2543,104.175 40.5,99C 43.1667,88.3333 43.1667,77.6667 40.5,67C 43.1667,56.3333 43.1667,45.6667 40.5,35C 41.2543,29.8255 41.9209,24.6588 42.5,19.5 Z"/></g>
<g><path style="opacity:1" fill="#fbf900" d="M 34.5,28.5 C 35.8048,30.3972 36.4714,32.7305 36.5,35.5C 36.1667,37.8333 35.8333,40.1667 35.5,42.5C 34.5067,37.8804 34.1734,33.2137 34.5,28.5 Z"/></g>
<g><path style="opacity:1" fill="#feff00" d="M 89.5,31.5 C 93.5,31.5 97.5,31.5 101.5,31.5C 101.5,34.1667 101.5,36.8333 101.5,39.5C 97.5,39.5 93.5,39.5 89.5,39.5C 89.5,36.8333 89.5,34.1667 89.5,31.5 Z"/></g>
<g><path style="opacity:1" fill="#fefd00" d="M 106.5,33.5 C 109.833,33.5 113.167,33.5 116.5,33.5C 116.67,34.8221 116.337,35.9887 115.5,37C 112.518,37.498 109.518,37.6646 106.5,37.5C 106.5,36.1667 106.5,34.8333 106.5,33.5 Z"/></g>
<g><path style="opacity:1" fill="#faf800" d="M 34.5,59.5 C 35.8086,61.5706 36.4752,64.0706 36.5,67C 36.1667,69.5 35.8333,72 35.5,74.5C 34.5059,69.544 34.1725,64.544 34.5,59.5 Z"/></g>
<g><path style="opacity:1" fill="#fcf900" d="M 89.5,62.5 C 93.5,62.5 97.5,62.5 101.5,62.5C 101.5,65.5 101.5,68.5 101.5,71.5C 97.5,71.5 93.5,71.5 89.5,71.5C 89.5,68.5 89.5,65.5 89.5,62.5 Z"/></g>
<g><path style="opacity:1" fill="#fefe00" d="M 116.5,65.5 C 116.5,66.5 116.5,67.5 116.5,68.5C 113.167,68.5 109.833,68.5 106.5,68.5C 106.5,67.5 106.5,66.5 106.5,65.5C 109.833,65.5 113.167,65.5 116.5,65.5 Z"/></g>
<g><path style="opacity:1" fill="#e7d500" d="M 116.5,65.5 C 113.167,65.5 109.833,65.5 106.5,65.5C 106.5,66.5 106.5,67.5 106.5,68.5C 109.833,68.5 113.167,68.5 116.5,68.5C 113.038,69.4816 109.371,69.815 105.5,69.5C 105.5,67.8333 105.5,66.1667 105.5,64.5C 109.371,64.185 113.038,64.5184 116.5,65.5 Z"/></g>
<g><path style="opacity:1" fill="#f9f600" d="M 34.5,91.5 C 35.8086,93.5706 36.4752,96.0706 36.5,99C 36.1667,101.5 35.8333,104 35.5,106.5C 34.5059,101.544 34.1725,96.544 34.5,91.5 Z"/></g>
<g><path style="opacity:1" fill="#feff00" d="M 89.5,94.5 C 93.5,94.5 97.5,94.5 101.5,94.5C 101.5,97.1667 101.5,99.8333 101.5,102.5C 97.5,102.5 93.5,102.5 89.5,102.5C 89.5,99.8333 89.5,97.1667 89.5,94.5 Z"/></g>
<g><path style="opacity:1" fill="#fefd00" d="M 106.5,96.5 C 109.518,96.3354 112.518,96.502 115.5,97C 116.337,98.0113 116.67,99.1779 116.5,100.5C 113.167,100.5 109.833,100.5 106.5,100.5C 106.5,99.1667 106.5,97.8333 106.5,96.5 Z"/></g>
</svg>
